# xmcd
# Copyright (C) 1995-1998 Ti Kan
#
# Track frame offsets:
#       150
#       14410
#       32094
#       47485
#       65858
#       81316
#       97757
#       109977
#       129573
#       146788
#       160680
#       176025
#       193186
#       209846
#       230159
#       243957
#       261842
#       279855
#       297554
#
# Disc length: 4207 seconds
#
# Revision: 16
# Processed by: cddbd v1.5.1PL0 Copyright (c) Steve Scherf et al.
# Submitted via: CD-Transfer v1.0
#
DISCID=25106d13
DTITLE=Nandez Miguel - Euro Express 574
DYEAR=04
DGENRE=
TTITLE0=Fiera Inguieta
TTITLE1=Por Que
TTITLE2=Te Sigo Amando
TTITLE3=Hasta El Limite
TTITLE4=Globaliza Mi Alma
TTITLE5=Ahora Vengo Yo
TTITLE6=Melao
TTITLE7=Vagabundo
TTITLE8=El Cielo No Entiende
TTITLE9=Sombras
TTITLE10=La Descarada
TTITLE11=Como Te Extrano
TTITLE12=Galilea
TTITLE13=Hoy Tengo Miedo
TTITLE14=Vivir
TTITLE15=La Sexta Duda
TTITLE16=Un Desastre
TTITLE17=Viviendo De Noche
TTITLE18=Ay Morena
EXTD=
EXTT0=
EXTT1=
EXTT2=
EXTT3=
EXTT4=
EXTT5=
EXTT6=
EXTT7=
EXTT8=
EXTT9=
EXTT10=
EXTT11=
EXTT12=
EXTT13=
EXTT14=
EXTT15=
EXTT16=
EXTT17=
EXTT18=
PLAYORDER=
